<?xml version="1.0" encoding="UTF-8"?>
<svg version="1.1" xmlns="http://www.w3.org/2000/svg" width="368" height="103">
<path d="M0 0 C0.70125 0.39832031 1.4025 0.79664063 2.125 1.20703125 C3.20007813 1.83158203 3.20007813 1.83158203 4.296875 2.46875 C5.0290625 2.88511719 5.76125 3.30148438 6.515625 3.73046875 C11.87581169 6.79768669 11.87581169 6.79768669 13.046875 7.96875 C13.1404669 9.68740409 13.16432111 11.40990744 13.16040039 13.13110352 C13.16028709 14.78270226 13.16028709 14.78270226 13.16017151 16.46766663 C13.15501022 17.6655632 13.14984894 18.86345978 13.14453125 20.09765625 C13.1431163 21.31702377 13.14170135 22.5363913 13.14024353 23.79270935 C13.13462467 27.7055807 13.12206896 31.61839581 13.109375 35.53125 C13.10436243 38.17643147 13.0997991 40.82161383 13.09570312 43.46679688 C13.08464911 49.96746726 13.06789264 56.46810461 13.046875 62.96875 C7.44140625 66.171875 1.8359375 69.375 -3.76953125 72.578125 C-4.37770691 72.92609131 -4.98588257 73.27405762 -5.61248779 73.63256836 C-6.84831613 74.3378699 -8.08567585 75.04049466 -9.32452393 75.74047852 C-12.52271307 77.55216345 -15.6791523 79.40653568 -18.79589844 81.35546875 C-19.41915009 81.73610474 -20.04240173 82.11674072 -20.68453979 82.50891113 C-22.40722736 83.56342832 -24.1178517 84.63757944 -25.82763672 85.71289062 C-28.953125 86.96875 -28.953125 86.96875 -32.11645508 86.30859375 C-34.40228765 85.2289269 -36.61841596 84.17309349 -38.78515625 82.875 C-39.43806641 82.48441406 -40.09097656 82.09382813 -40.76367188 81.69140625 C-41.75463867 81.08619141 -41.75463867 81.08619141 -42.765625 80.46875 C-43.7855957 79.86353516 -43.7855957 79.86353516 -44.82617188 79.24609375 C-49.82438058 76.22623884 -49.82438058 76.22623884 -50.953125 73.96875 C-50.35588623 73.63254639 -49.75864746 73.29634277 -49.14331055 72.94995117 C-48.3006665 72.47533447 -47.45802246 72.00071777 -46.58984375 71.51171875 C-45.64826416 70.98304199 -44.70668457 70.45436523 -43.73657227 69.90966797 C-41.65511905 68.73081796 -39.5814318 67.53815976 -37.51538086 66.33251953 C-32.49758592 63.42194417 -27.59863816 60.73122853 -22.1953125 58.60546875 C-14.65148276 55.54785277 -14.65148276 55.54785277 -8.953125 49.96875 C-6.69663009 41.1731094 -7.78804323 31.87148418 -8.953125 22.96875 C-9.79290894 23.46858398 -9.79290894 23.46858398 -10.6496582 23.97851562 C-13.18436203 25.48204211 -15.72486598 26.9754808 -18.265625 28.46875 C-19.14669922 28.99339844 -20.02777344 29.51804688 -20.93554688 30.05859375 C-21.78310547 30.55488281 -22.63066406 31.05117188 -23.50390625 31.5625 C-24.28419189 32.02333984 -25.06447754 32.48417969 -25.8684082 32.95898438 C-27.953125 33.96875 -27.953125 33.96875 -30.953125 33.96875 C-32.33127855 26.08628996 -33.5960777 17.67873266 -30.953125 9.96875 C-23.63058202 1.41288231 -10.54921235 -6.04487459 0 0 Z " fill="#FFFFFF" transform="translate(72.953125,16.03125)"/>
<path d="M0 0 C2.24169922 1.03149414 2.24169922 1.03149414 4.3046875 2.28515625 C5.42617187 2.95708008 5.42617187 2.95708008 6.5703125 3.64257812 C7.33085938 4.11115234 8.09140625 4.57972656 8.875 5.0625 C9.65875 5.53494141 10.4425 6.00738281 11.25 6.49414062 C13.17198433 7.65436287 15.08822535 8.82305776 17 10 C14.4935945 12.80955262 11.70065552 14.47111394 8.44140625 16.328125 C7.33216797 16.96363281 6.22292969 17.59914063 5.08007812 18.25390625 C3.90764846 18.91944065 2.73512207 19.58480466 1.5625 20.25 C-0.70719113 21.54659516 -2.97672313 22.84346894 -5.24609375 24.140625 C-6.36226074 24.77548828 -7.47842773 25.41035156 -8.62841797 26.06445312 C-10.914085 27.37660144 -13.18855301 28.69843768 -15.45361328 30.04492188 C-16.53239746 30.68494141 -17.61118164 31.32496094 -18.72265625 31.984375 C-20.17490601 32.85400879 -20.17490601 32.85400879 -21.65649414 33.74121094 C-24 35 -24 35 -26 35 C-26 44.24 -26 53.48 -26 63 C-20.25581651 59.80002506 -20.25581651 59.80002506 -14.51269531 56.59814453 C-13.79178711 56.19708496 -13.07087891 55.79602539 -12.328125 55.3828125 C-11.5949707 54.97434082 -10.86181641 54.56586914 -10.10644531 54.14501953 C-8.09178544 53.04989264 -6.05728631 52.01238002 -4 51 C-1.29784806 72.39713075 -1.29784806 72.39713075 -5.58789062 78.1171875 C-9.59919901 81.41925005 -14.16027587 83.43614685 -19.01318359 85.20996094 C-21.21672872 86.00395538 -21.21672872 86.00395538 -23.73828125 87.8515625 C-26 89 -26 89 -28.12182617 88.36083984 C-31.96014421 86.54603072 -35.62833636 84.48211772 -39.3125 82.375 C-40.05306641 81.95476562 -40.79363281 81.53453125 -41.55664062 81.1015625 C-43.37269011 80.07051505 -45.18656533 79.03563954 -47 78 C-47.33049472 70.31485918 -47.5576018 62.63155534 -47.71411133 54.94091797 C-47.77936358 52.32726589 -47.86799258 49.71408622 -47.98071289 47.10205078 C-48.86076394 26.17993219 -48.86076394 26.17993219 -45.91470337 21.14529419 C-43.09536363 18.28314987 -39.6375297 16.95967872 -35.88699341 15.70684814 C-32.60859026 14.47879235 -29.76869943 12.54014157 -26.81640625 10.68359375 C-25.61285698 9.97110755 -24.40646122 9.26340778 -23.19726562 8.56054688 C-21.3593435 7.49009782 -19.52534019 6.41520801 -17.70141602 5.32104492 C-15.8945432 4.23825244 -14.07615541 3.17775081 -12.25390625 2.12109375 C-11.19502197 1.4964624 -10.1361377 0.87183105 -9.04516602 0.22827148 C-5.42936962 -1.23016447 -3.70885691 -1.07971812 0 0 Z " fill="#FFFFFF" transform="translate(47,1)"/>
<path d="M0 0 C4.35230934 3.15542427 6.88321173 6.69267049 8.5 11.8125 C8.5 12.8025 8.5 13.7925 8.5 14.8125 C4.21 14.8125 -0.08 14.8125 -4.5 14.8125 C-5.16 13.4925 -5.82 12.1725 -6.5 10.8125 C-8.81 10.8125 -11.12 10.8125 -13.5 10.8125 C-14.22526532 18.65652334 -14.71074074 26.00994856 -13.5 33.8125 C-11.19 33.8125 -8.88 33.8125 -6.5 33.8125 C-5.84 32.4925 -5.18 31.1725 -4.5 29.8125 C-0.21 29.8125 4.08 29.8125 8.5 29.8125 C7.34773517 36.72608898 5.96949152 39.85748588 0.5 44.1875 C-4.54976264 46.76124999 -10.00122931 46.65846472 -15.5 45.8125 C-19.78440819 44.14253898 -22.63148855 41.93315993 -25.4375 38.3125 C-29.00735402 29.91284348 -28.89707468 17.34525418 -26.375 8.5625 C-24.67229584 4.37871262 -22.22535237 2.29606825 -18.5 -0.1875 C-12.5892363 -2.15775457 -5.87151456 -1.99212101 0 0 Z " fill="#FFFFFF" transform="translate(136.5,1.1875)"/>
<path d="M0 0 C3.5 1.8125 3.5 1.8125 6 4 C6.86625 4.6496875 6.86625 4.6496875 7.75 5.3125 C11.48173425 10.35034123 11 15.94645728 11 22 C1.1 22.495 1.1 22.495 -9 23 C-9 23.66 -9 24.32 -9 25 C-2.68731397 25.37552165 -2.68731397 25.37552165 3 23 C4.00894372 23.92786789 5.00690907 24.86768433 6 25.8125 C6.556875 26.33457031 7.11375 26.85664062 7.6875 27.39453125 C9 29 9 29 9 32 C2.6813938 36.70221857 -3.27631985 36.95330057 -11 36 C-15.03866497 34.77323829 -17.40126592 32.96870656 -19.65625 29.3203125 C-21.20588301 25.49127745 -21.40012438 22.62039764 -21.375 18.5 C-21.38273438 17.2315625 -21.39046875 15.963125 -21.3984375 14.65625 C-20.83139565 9.45280713 -19.31955017 6.19081357 -15.4375 2.6875 C-10.48782588 -0.73919747 -5.90901132 -0.61760853 0 0 Z M-8 10 C-8.66 11.32 -9.32 12.64 -10 14 C-7.03 14 -4.06 14 -1 14 C-1.66 12.68 -2.32 11.36 -3 10 C-4.65 10 -6.3 10 -8 10 Z " fill="#FFFFFF" transform="translate(169,11)"/>
<path d="M0 0 C11.55 0 23.1 0 35 0 C35 3.63 35 7.26 35 11 C31.37 11 27.74 11 24 11 C24 22.88 24 34.76 24 47 C19.71 47 15.42 47 11 47 C11 35.12 11 23.24 11 11 C7.37 11 3.74 11 0 11 C0 7.37 0 3.74 0 0 Z " fill="#FFFFFF" transform="translate(179,0)"/>
<path d="M0 0 C4.29 0 8.58 0 13 0 C13 15.51 13 31.02 13 47 C8.71 47 4.42 47 0 47 C0 31.49 0 15.98 0 0 Z " fill="#FFFFFF" transform="translate(219,0)"/>
<path d="M0 0 C2.475 0.495 2.475 0.495 5 1 C5.33 1.66 5.66 2.32 6 3 C6.33 2.01 6.66 1.02 7 0 C8.32 0 9.64 0 11 0 C11.33 0.99 11.66 1.98 12 3 C12.66 2.01 13.32 1.02 14 0 C15.9453125 -0.29296875 15.9453125 -0.29296875 18.125 -0.1875 C19.40375 -0.125625 20.6825 -0.06375 22 0 C22 4.29 22 8.58 22 13 C20.68 13 19.36 13 18 13 C17.67 10.36 17.34 7.72 17 5 C16.01 7.64 15.02 10.28 14 13 C12.68 12.67 11.36 12.34 10 12 C10 11.01 10 10.02 10 9 C9.34 9 8.68 9 8 9 C7.67 10.32 7.34 11.64 7 13 C5.68 12.67 4.36 12.34 3 12 C2.01 8.04 1.02 4.08 0 0 Z " fill="#FFFFFF" transform="translate(109,86)"/>
<path d="M0 0 C2.45840605 -0.02691685 4.91651882 -0.04679802 7.375 -0.0625 C8.07367188 -0.07087891 8.77234375 -0.07925781 9.4921875 -0.08789062 C14.7734375 -0.11328125 14.7734375 -0.11328125 17 1 C17.96070434 3.88211302 18.10581883 5.69850044 18.0625 8.6875 C18.05347656 9.49574219 18.04445312 10.30398437 18.03515625 11.13671875 C18.02355469 11.75160156 18.01195312 12.36648437 18 13 C16.68 13 15.36 13 14 13 C13.8046875 10.94921875 13.609375 8.8984375 13.4140625 6.84765625 C13.27742187 6.23792969 13.14078125 5.62820312 13 5 C12.34 4.67 11.68 4.34 11 4 C11 6.97 11 9.94 11 13 C9.68 13 8.36 13 7 13 C7 10.03 7 7.06 7 4 C6.01 4.495 6.01 4.495 5 5 C4.53476937 6.89533342 4.53476937 6.89533342 4.375 9.0625 C4.189375 11.0115625 4.189375 11.0115625 4 13 C2.68 13 1.36 13 0 13 C0 8.71 0 4.42 0 0 Z " fill="#FFFFFF" transform="translate(186,86)"/>
<path d="M0 0 C3.12551199 -0.08067765 6.24895891 -0.1403399 9.375 -0.1875 C10.70917969 -0.22520508 10.70917969 -0.22520508 12.0703125 -0.26367188 C13.34648437 -0.27817383 13.34648437 -0.27817383 14.6484375 -0.29296875 C15.82672119 -0.31653442 15.82672119 -0.31653442 17.02880859 -0.34057617 C17.67930176 -0.22818604 18.32979492 -0.1157959 19 0 C21.13586678 3.20380017 21.23132175 4.01939967 21.125 7.6875 C21.10695313 8.49574219 21.08890625 9.30398437 21.0703125 10.13671875 C21.04710937 10.75160156 21.02390625 11.36648437 21 12 C19.68 12 18.36 12 17 12 C17 9.36 17 6.72 17 4 C16.01 4 15.02 4 14 4 C14 6.64 14 9.28 14 12 C12.68 12 11.36 12 10 12 C9.67 9.03 9.34 6.06 9 3 C7.35 3.33 5.7 3.66 4 4 C4 6.64 4 9.28 4 12 C2.68 12 1.36 12 0 12 C0 8.04 0 4.08 0 0 Z " fill="#FFFFFF" transform="translate(327,60)"/>
<path d="M0 0 C1.32 0 2.64 0 4 0 C4 2.31 4 4.62 4 7 C5.32 7 6.64 7 8 7 C8 4.69 8 2.38 8 0 C9.32 0 10.64 0 12 0 C12 5.61 12 11.22 12 17 C10.68 17 9.36 17 8 17 C8 14.69 8 12.38 8 10 C6.68 10 5.36 10 4 10 C4 12.31 4 14.62 4 17 C2.68 17 1.36 17 0 17 C0 11.39 0 5.78 0 0 Z " fill="#FFFFFF" transform="translate(159,82)"/>
<path d="M0 0 C6.8359375 -0.1953125 6.8359375 -0.1953125 9 0 C11 2 11 2 11.265625 4.09375 C11.26046875 4.8878125 11.2553125 5.681875 11.25 6.5 C11.25515625 7.2940625 11.2603125 8.088125 11.265625 8.90625 C11 11 11 11 9 13 C6.375 13.125 6.375 13.125 4 13 C4 14.32 4 15.64 4 17 C2.68 17 1.36 17 0 17 C0 11.39 0 5.78 0 0 Z M5 4 C4.67 5.32 4.34 6.64 4 8 C4.99 8.33 5.98 8.66 7 9 C7 7.35 7 5.7 7 4 C6.34 4 5.68 4 5 4 Z " fill="#FFFFFF" transform="translate(345,86)"/>
<path d="M0 0 C3.5 0.5 3.5 0.5 5.4375 1.8125 C6.5 3.5 6.5 3.5 6.5 6.5 C1.75 5.625 1.75 5.625 -0.5 4.5 C-1.29953138 7.78696233 -1.59658936 9.21023192 -0.5 12.5 C0.16 12.83 0.82 13.16 1.5 13.5 C1.5 12.84 1.5 12.18 1.5 11.5 C3.15 11.5 4.8 11.5 6.5 11.5 C5.875 13.9375 5.875 13.9375 4.5 16.5 C1.25125173 17.6299994 -0.58175427 17.84744433 -3.8125 16.625 C-6.4894219 13.25406131 -6.67012688 9.72358467 -6.5 5.5 C-5.11105785 1.24636466 -4.46852203 0.63836029 0 0 Z " fill="#FFFFFF" transform="translate(116.5,55.5)"/>
<path d="M0 0 C1.32 0 2.64 0 4 0 C4 1.32 4 2.64 4 4 C5.4540625 4.185625 5.4540625 4.185625 6.9375 4.375 C8.4534375 4.684375 8.4534375 4.684375 10 5 C11.26237731 7.52475462 11.09856404 9.31200466 11.0625 12.125 C11.05347656 13.03507812 11.04445312 13.94515625 11.03515625 14.8828125 C11.02355469 15.58148438 11.01195312 16.28015625 11 17 C9.68 17 8.36 17 7 17 C6.8046875 14.94921875 6.609375 12.8984375 6.4140625 10.84765625 C6.20910156 9.93306641 6.20910156 9.93306641 6 9 C5.34 8.67 4.68 8.34 4 8 C4 10.97 4 13.94 4 17 C2.68 17 1.36 17 0 17 C0 11.39 0 5.78 0 0 Z " fill="#FFFFFF" transform="translate(141,82)"/>
<path d="M0 0 C1.32 0 2.64 0 4 0 C4 1.32 4 2.64 4 4 C6.97 4.495 6.97 4.495 10 5 C10 8.96 10 12.92 10 17 C9.01 17 8.02 17 7 17 C6.8046875 14.94921875 6.609375 12.8984375 6.4140625 10.84765625 C6.20910156 9.93306641 6.20910156 9.93306641 6 9 C5.34 8.67 4.68 8.34 4 8 C4 10.97 4 13.94 4 17 C2.68 17 1.36 17 0 17 C0 11.39 0 5.78 0 0 Z " fill="#FFFFFF" transform="translate(275,82)"/>
<path d="M0 0 C6.8359375 -0.1953125 6.8359375 -0.1953125 9 0 C11 2 11 2 11.1953125 4.6015625 C11.17210937 5.59929687 11.14890625 6.59703125 11.125 7.625 C11.10695313 8.62789062 11.08890625 9.63078125 11.0703125 10.6640625 C11.03550781 11.82035156 11.03550781 11.82035156 11 13 C9.68 13 8.36 13 7 13 C7 10.03 7 7.06 7 4 C6.01 4.495 6.01 4.495 5 5 C4.53476937 6.89533342 4.53476937 6.89533342 4.375 9.0625 C4.189375 11.0115625 4.189375 11.0115625 4 13 C2.68 13 1.36 13 0 13 C0 8.71 0 4.42 0 0 Z " fill="#FFFFFF" transform="translate(245,86)"/>
<path d="M0 0 C6.8359375 -0.1953125 6.8359375 -0.1953125 9 0 C11 2 11 2 11.1953125 4.6015625 C11.17210937 5.59929687 11.14890625 6.59703125 11.125 7.625 C11.10695312 8.62789062 11.08890625 9.63078125 11.0703125 10.6640625 C11.03550781 11.82035156 11.03550781 11.82035156 11 13 C9.68 13 8.36 13 7 13 C7 10.03 7 7.06 7 4 C6.01 4.495 6.01 4.495 5 5 C4.53476937 6.89533342 4.53476937 6.89533342 4.375 9.0625 C4.189375 11.0115625 4.189375 11.0115625 4 13 C2.68 13 1.36 13 0 13 C0 8.71 0 4.42 0 0 Z " fill="#FFFFFF" transform="translate(217,86)"/>
<path d="M0 0 C1.8125 1.1875 1.8125 1.1875 3 3 C3.32696581 6.18791664 2.97904955 8.95406806 2 12 C1 13 1 13 -1.875 13.25 C-5 13 -5 13 -6.875 11.9375 C-8.64273274 8.8930714 -8.36823916 6.4368988 -8 3 C-5.95177941 -0.34183359 -3.7548828 -0.56323242 0 0 Z M-4 8 C0 9 0 9 0 9 Z " fill="#FFFFFF" transform="translate(295,86)"/>
<path d="M0 0 C3 -0.3125 3 -0.3125 6 0 C8 2 8 2 8.1953125 4.6015625 C8.17210937 5.59929687 8.14890625 6.59703125 8.125 7.625 C8.10695312 8.62789062 8.08890625 9.63078125 8.0703125 10.6640625 C8.03550781 11.82035156 8.03550781 11.82035156 8 13 C0.25 13.125 0.25 13.125 -2 12 C-2 3 -2 3 0 0 Z " fill="#FFFFFF" transform="translate(207,86)"/>
<path d="M0 0 C2 2 2 2 2.1953125 4.1640625 C2.17210937 4.97617188 2.14890625 5.78828125 2.125 6.625 C2.10695313 7.44226563 2.08890625 8.25953125 2.0703125 9.1015625 C2.03550781 10.04128906 2.03550781 10.04128906 2 11 C-3.38023451 13.20100503 -3.38023451 13.20100503 -6.3125 12.25 C-8 11 -8 11 -9 9 C-9.44720497 3.74534161 -9.44720497 3.74534161 -7.875 1.125 C-5.15781176 -0.50531294 -3.10347254 -0.33015665 0 0 Z M-4 3 C-4.33 3.66 -4.66 4.32 -5 5 C-4.01 4.67 -3.02 4.34 -2 4 C-2.66 3.67 -3.32 3.34 -4 3 Z " fill="#FFFFFF" transform="translate(358,60)"/>
<path d="M0 0 C3.0625 0.3125 3.0625 0.3125 4.9375 1.5 C6.82793312 4.5456978 6.29549318 7.23490653 5.5625 10.625 C5.3975 11.181875 5.2325 11.73875 5.0625 12.3125 C1.85290466 13.11489884 -0.18937355 13.60781307 -3.3125 12.375 C-5.92017513 9.06525849 -5.33168036 6.45139383 -4.9375 2.3125 C-2.9375 0.3125 -2.9375 0.3125 0 0 Z M0.0625 3.3125 C-0.2675 3.9725 -0.5975 4.6325 -0.9375 5.3125 C0.0525 4.9825 1.0425 4.6525 2.0625 4.3125 C1.4025 3.9825 0.7425 3.6525 0.0625 3.3125 Z " fill="#FFFFFF" transform="translate(128.9375,59.6875)"/>
<path d="M0 0 C4.29 0 8.58 0 13 0 C13 1.32 13 2.64 13 4 C11.68 4 10.36 4 9 4 C9 7.96 9 11.92 9 16 C7.35 16 5.7 16 4 16 C4 12.04 4 8.08 4 4 C2.68 4 1.36 4 0 4 C0 2.68 0 1.36 0 0 Z " fill="#FFFFFF" transform="translate(216,56)"/>
<path d="M0 0 C3 0.25 3 0.25 5 2.25 C5.30078125 4.34375 5.30078125 4.34375 5.3125 6.75 C5.33763672 7.94109375 5.33763672 7.94109375 5.36328125 9.15625 C5.24339844 9.8471875 5.12351563 10.538125 5 11.25 C2 13.25 2 13.25 -1.0625 13.125 C-4 12.25 -4 12.25 -5.4375 10.5625 C-6.18468581 7.49073613 -5.79336059 5.2912156 -5 2.25 C-3 0.25 -3 0.25 0 0 Z M-1 3.25 C-1.33 3.91 -1.66 4.57 -2 5.25 C-1.01 4.92 -0.02 4.59 1 4.25 C0.34 3.92 -0.32 3.59 -1 3.25 Z " fill="#FFFFFF" transform="translate(171,59.75)"/>
<path d="M0 0 C1.32 0 2.64 0 4 0 C4 2.97 4 5.94 4 9 C4.66 9 5.32 9 6 9 C6 6.03 6 3.06 6 0 C7.32 0 8.64 0 10 0 C10 4.29 10 8.58 10 13 C2.25 13.125 2.25 13.125 0 12 C0 8.04 0 4.08 0 0 Z " fill="#FFFFFF" transform="translate(174,86)"/>
<path d="M0 0 C3.0625 0.4375 3.0625 0.4375 5 2.5625 C6.28801116 6.04770667 6.16038302 7.90859028 5.0625 11.4375 C2.0625 13.4375 2.0625 13.4375 -1.0625 13.125 C-3.9375 12.4375 -3.9375 12.4375 -4.9375 11.4375 C-5.10546875 9.44140625 -5.10546875 9.44140625 -5.125 7 C-5.13917969 6.19691406 -5.15335937 5.39382812 -5.16796875 4.56640625 C-4.7822097 1.00303872 -3.39274155 0.50530193 0 0 Z M-0.9375 3.4375 C-0.9375 4.0975 -0.9375 4.7575 -0.9375 5.4375 C-0.2775 5.4375 0.3825 5.4375 1.0625 5.4375 C1.0625 4.7775 1.0625 4.1175 1.0625 3.4375 C0.4025 3.4375 -0.2575 3.4375 -0.9375 3.4375 Z " fill="#FFFFFF" transform="translate(319.9375,59.5625)"/>
<path d="M0 0 C3 0.25 3 0.25 5 2.25 C5.30078125 4.34375 5.30078125 4.34375 5.3125 6.75 C5.33763672 7.94109375 5.33763672 7.94109375 5.36328125 9.15625 C5.24339844 9.8471875 5.12351562 10.538125 5 11.25 C2 13.25 2 13.25 -1.0625 13.125 C-4 12.25 -4 12.25 -5.4375 10.5625 C-6.18468581 7.49073613 -5.79336059 5.2912156 -5 2.25 C-3 0.25 -3 0.25 0 0 Z M-1 3.25 C-1.33 3.91 -1.66 4.57 -2 5.25 C-1.01 4.92 -0.02 4.59 1 4.25 C0.34 3.92 -0.32 3.59 -1 3.25 Z " fill="#FFFFFF" transform="translate(276,59.75)"/>
<path d="M0 0 C1.875 1.5625 1.875 1.5625 3 4 C2.67272727 10.32727273 2.67272727 10.32727273 0 13 C-3.5625 12.75 -3.5625 12.75 -7 12 C-8.52491998 8.95016004 -8.23562548 6.3576631 -8 3 C-5.96513637 -0.32004065 -3.73886079 -0.65430064 0 0 Z M-4 4 C-4 5.65 -4 7.3 -4 9 C-3.01 8.67 -2.02 8.34 -1 8 C-1.33 6.68 -1.66 5.36 -2 4 C-2.66 4 -3.32 4 -4 4 Z " fill="#FFFFFF" transform="translate(341,86)"/>
<path d="M0 0 C1.875 1.5625 1.875 1.5625 3 4 C2.67272727 10.32727273 2.67272727 10.32727273 0 13 C-3.5625 12.75 -3.5625 12.75 -7 12 C-8.52491998 8.95016004 -8.23562548 6.3576631 -8 3 C-5.96513637 -0.32004065 -3.73886079 -0.65430064 0 0 Z M-4 4 C-4 5.65 -4 7.3 -4 9 C-3.01 8.67 -2.02 8.34 -1 8 C-1.33 6.68 -1.66 5.36 -2 4 C-2.66 4 -3.32 4 -4 4 Z " fill="#FFFFFF" transform="translate(329,86)"/>
<path d="M0 0 C3.375 -0.125 3.375 -0.125 7 0 C9 2 9 2 9.1953125 4.3828125 C9.17210937 5.28773437 9.14890625 6.19265625 9.125 7.125 C9.10695312 8.03507812 9.08890625 8.94515625 9.0703125 9.8828125 C9.04710937 10.58148438 9.02390625 11.28015625 9 12 C2.375 13.25 2.375 13.25 -1 11 C-1.1875 8.375 -1.1875 8.375 -1 6 C0.32 5.34 1.64 4.68 3 4 C1.68 3.67 0.36 3.34 -1 3 C-0.67 2.01 -0.34 1.02 0 0 Z " fill="#FFFFFF" transform="translate(229,60)"/>
<path d="M0 0 C6.8359375 -0.1953125 6.8359375 -0.1953125 9 0 C11 2 11 2 11.1953125 4.3828125 C11.17210937 5.28773437 11.14890625 6.19265625 11.125 7.125 C11.10695312 8.03507812 11.08890625 8.94515625 11.0703125 9.8828125 C11.04710937 10.58148438 11.02390625 11.28015625 11 12 C9.68 12 8.36 12 7 12 C7 9.36 7 6.72 7 4 C6.01 4 5.02 4 4 4 C4 6.64 4 9.28 4 12 C2.68 12 1.36 12 0 12 C0 8.04 0 4.08 0 0 Z " fill="#FFFFFF" transform="translate(136,60)"/>
<path d="M0 0 C3 0.25 3 0.25 5 2.25 C5.95798901 5.20379945 6.06660794 6.95692508 5.375 10 C4 12.25 4 12.25 1.5625 13.125 C-1 13.25 -1 13.25 -4 12.25 C-5.11445498 10.02109005 -5.16480286 8.71944894 -5.1875 6.25 C-5.20167969 5.54875 -5.21585938 4.8475 -5.23046875 4.125 C-4.80271725 0.64498783 -3.27487943 0.27290662 0 0 Z M-1 4.25 C-1 5.9 -1 7.55 -1 9.25 C-0.34 9.25 0.32 9.25 1 9.25 C1.33 7.93 1.66 6.61 2 5.25 C1.01 4.92 0.02 4.59 -1 4.25 Z " fill="#FFFFFF" transform="translate(195,59.75)"/>
<path d="M0 0 C1.32 0 2.64 0 4 0 C4 4.29 4 8.58 4 13 C6.31 13 8.62 13 11 13 C11 14.32 11 15.64 11 17 C7.37 17 3.74 17 0 17 C0 11.39 0 5.78 0 0 Z " fill="#FFFFFF" transform="translate(309,82)"/>
<path d="M0 0 C6.93359375 -0.09765625 6.93359375 -0.09765625 9 0 C10 1 10 1 10.09765625 3.50390625 C10.08605469 4.51324219 10.07445312 5.52257812 10.0625 6.5625 C10.05347656 7.57441406 10.04445313 8.58632812 10.03515625 9.62890625 C10.02355469 10.41136719 10.01195312 11.19382812 10 12 C9.01 12 8.02 12 7 12 C6.87625 10.865625 6.7525 9.73125 6.625 8.5625 C6.41875 7.386875 6.2125 6.21125 6 5 C5.34 4.67 4.68 4.34 4 4 C4 6.64 4 9.28 4 12 C2.68 12 1.36 12 0 12 C0 8.04 0 4.08 0 0 Z " fill="#FFFFFF" transform="translate(295,60)"/>
<path d="M0 0 C1.32 0 2.64 0 4 0 C4 1.32 4 2.64 4 4 C4.66 4 5.32 4 6 4 C6 4.99 6 5.98 6 7 C5.34 7 4.68 7 4 7 C4 8.65 4 10.3 4 12 C4.66 12 5.32 12 6 12 C6 13.32 6 14.64 6 16 C3.03 15.505 3.03 15.505 0 15 C0 12.36 0 9.72 0 7 C-0.66 7 -1.32 7 -2 7 C-2 6.01 -2 5.02 -2 4 C-1.34 4 -0.68 4 0 4 C0 2.68 0 1.36 0 0 Z " fill="#FFFFFF" transform="translate(134,83)"/>
<path d="M0 0 C0.94875 0.04125 1.8975 0.0825 2.875 0.125 C2.875 1.445 2.875 2.765 2.875 4.125 C1.555 4.125 0.235 4.125 -1.125 4.125 C-1.125 5.775 -1.125 7.425 -1.125 9.125 C0.195 8.795 1.515 8.465 2.875 8.125 C3.205 9.445 3.535 10.765 3.875 12.125 C0.58803767 12.92453138 -0.83523192 13.22158936 -4.125 12.125 C-5.23945498 9.89609005 -5.28980286 8.59444894 -5.3125 6.125 C-5.32667969 5.42375 -5.34085938 4.7225 -5.35546875 4 C-4.91535145 0.4193847 -3.36447396 0.13457896 0 0 Z " fill="#FFFFFF" transform="translate(245.125,59.875)"/>
<path d="M0 0 C1.32 0 2.64 0 4 0 C4 0.99 4 1.98 4 3 C4.66 3 5.32 3 6 3 C6 3.99 6 4.98 6 6 C5.34 6 4.68 6 4 6 C4 7.98 4 9.96 4 12 C4.66 12 5.32 12 6 12 C6 12.99 6 13.98 6 15 C4.33388095 15.042721 2.66617115 15.04063832 1 15 C0 14 0 14 -0.09765625 12.15234375 C-0.06510417 10.1015625 -0.03255208 8.05078125 0 6 C-0.66 6 -1.32 6 -2 6 C-2 5.01 -2 4.02 -2 3 C-1.34 3 -0.68 3 0 3 C0 2.01 0 1.02 0 0 Z " fill="#FFFFFF" transform="translate(308,57)"/>
<path d="M0 0 C1.65 0 3.3 0 5 0 C5 2.31 5 4.62 5 7 C4.34 7 3.68 7 3 7 C3 9.97 3 12.94 3 16 C1.68 16 0.36 16 -1 16 C-1.22281874 14.08496326 -1.42771076 12.16783494 -1.625 10.25 C-1.74101562 9.18265625 -1.85703125 8.1153125 -1.9765625 7.015625 C-2.00029475 3.96207601 -1.61420985 2.53837579 0 0 Z " fill="#FFFFFF" transform="translate(184,56)"/>
<path d="M0 0 C1.32 0 2.64 0 4 0 C4 0.99 4 1.98 4 3 C4.66 3 5.32 3 6 3 C6 3.99 6 4.98 6 6 C5.34 6 4.68 6 4 6 C4 7.98 4 9.96 4 12 C4.66 12 5.32 12 6 12 C6 12.99 6 13.98 6 15 C4.33388095 15.042721 2.66617115 15.04063832 1 15 C-0.71584497 13.28415503 -0.40976422 10.96799522 -0.625 8.625 C-0.72039062 7.64789063 -0.81578125 6.67078125 -0.9140625 5.6640625 C-1 3 -1 3 0 0 Z " fill="#FFFFFF" transform="translate(362,57)"/>
<path d="M0 0 C1.32 0 2.64 0 4 0 C4 0.99 4 1.98 4 3 C4.66 3 5.32 3 6 3 C6 3.99 6 4.98 6 6 C5.34 6 4.68 6 4 6 C4 7.98 4 9.96 4 12 C4.66 12 5.32 12 6 12 C6 12.99 6 13.98 6 15 C4.33388095 15.042721 2.66617115 15.04063832 1 15 C-0.71584497 13.28415503 -0.40976422 10.96799522 -0.625 8.625 C-0.72039062 7.64789063 -0.81578125 6.67078125 -0.9140625 5.6640625 C-1 3 -1 3 0 0 Z " fill="#FFFFFF" transform="translate(251,57)"/>
<path d="M0 0 C1.32 0 2.64 0 4 0 C4 0.99 4 1.98 4 3 C4.66 3 5.32 3 6 3 C6 3.99 6 4.98 6 6 C5.34 6 4.68 6 4 6 C4 7.98 4 9.96 4 12 C4.66 12 5.32 12 6 12 C6 12.99 6 13.98 6 15 C4.33388095 15.042721 2.66617115 15.04063832 1 15 C-0.71584497 13.28415503 -0.40976422 10.96799522 -0.625 8.625 C-0.72039062 7.64789063 -0.81578125 6.67078125 -0.9140625 5.6640625 C-1 3 -1 3 0 0 Z " fill="#FFFFFF" transform="translate(149,57)"/>
<path d="M0 0 C1.32 0 2.64 0 4 0 C4 4.29 4 8.58 4 13 C4.66 13 5.32 13 6 13 C6 13.99 6 14.98 6 16 C4.35 16 2.7 16 1 16 C-0.50156874 12.99686252 -0.09281204 10.20932478 -0.0625 6.875 C-0.05347656 5.59367187 -0.04445313 4.31234375 -0.03515625 2.9921875 C-0.02355469 2.00476562 -0.01195312 1.01734375 0 0 Z " fill="#FFFFFF" transform="translate(264,56)"/>
<path d="M0 0 C0.99 0 1.98 0 3 0 C3 1.32 3 2.64 3 4 C3.66 4 4.32 4 5 4 C5 4.99 5 5.98 5 7 C4.34 7 3.68 7 3 7 C3 8.65 3 10.3 3 12 C3.66 12 4.32 12 5 12 C5 13.32 5 14.64 5 16 C3.35 15.67 1.7 15.34 0 15 C0 12.36 0 9.72 0 7 C-0.66 7 -1.32 7 -2 7 C-2 6.01 -2 5.02 -2 4 C-1.34 4 -0.68 4 0 4 C0 2.68 0 1.36 0 0 Z " fill="#FFFFFF" transform="translate(268,83)"/>
<path d="M0 0 C2.97 0 5.94 0 9 0 C9 0.99 9 1.98 9 3 C7.68 3.33 6.36 3.66 5 4 C4.67 6.64 4.34 9.28 4 12 C2.68 12 1.36 12 0 12 C0 8.04 0 4.08 0 0 Z " fill="#FFFFFF" transform="translate(202,60)"/>
<path d="M0 0 C2.97 0 5.94 0 9 0 C8.67 1.32 8.34 2.64 8 4 C6.68 4 5.36 4 4 4 C4 6.64 4 9.28 4 12 C2.68 12 1.36 12 0 12 C0 8.04 0 4.08 0 0 Z " fill="#FFFFFF" transform="translate(157,60)"/>
<path d="M0 0 C1.32 0 2.64 0 4 0 C4 5.28 4 10.56 4 16 C2.68 16 1.36 16 0 16 C0 10.72 0 5.44 0 0 Z " fill="#FFFFFF" transform="translate(288,56)"/>
<path d="M0 0 C1.32 0 2.64 0 4 0 C4 4.29 4 8.58 4 13 C2.68 13 1.36 13 0 13 C0 8.71 0 4.42 0 0 Z " fill="#FFFFFF" transform="translate(239,86)"/>
<path d="M0 0 C1.32 0 2.64 0 4 0 C4 3.96 4 7.92 4 12 C2.68 12 1.36 12 0 12 C0 8.04 0 4.08 0 0 Z " fill="#FFFFFF" transform="translate(258,60)"/>
<path d="M0 0 C2.64 0 5.28 0 8 0 C8 1.32 8 2.64 8 4 C5.36 4 2.72 4 0 4 C0 2.68 0 1.36 0 0 Z " fill="#FFFFFF" transform="translate(299,90)"/>
<path d="M0 0 C2.31 0 4.62 0 7 0 C7 1.32 7 2.64 7 4 C4.69 4 2.38 4 0 4 C0 2.68 0 1.36 0 0 Z " fill="#FFFFFF" transform="translate(258,90)"/>
<path d="M0 0 C2.31 0 4.62 0 7 0 C7 1.32 7 2.64 7 4 C4.69 4 2.38 4 0 4 C0 2.68 0 1.36 0 0 Z " fill="#FFFFFF" transform="translate(230,90)"/>
<path d="M0 0 C1.32 0 2.64 0 4 0 C4 0.99 4 1.98 4 3 C2.68 3 1.36 3 0 3 C0 2.01 0 1.02 0 0 Z " fill="#FFFFFF" transform="translate(239,82)"/>
<path d="M0 0 C1.32 0 2.64 0 4 0 C4 0.99 4 1.98 4 3 C2.68 3 1.36 3 0 3 C0 2.01 0 1.02 0 0 Z " fill="#FFFFFF" transform="translate(127,82)"/>
<path d="M0 0 C1.32 0 2.64 0 4 0 C4 0.99 4 1.98 4 3 C2.68 3 1.36 3 0 3 C0 2.01 0 1.02 0 0 Z " fill="#FFFFFF" transform="translate(258,56)"/>
</svg>
